<svg width="167" height="25" viewBox="0 0 167 25" fill="none" xmlns="http://www.w3.org/2000/svg">
<path d="M8.69001 23.6411C8.95989 23.6411 9.12181 23.5062 9.12181 23.1823V20.4026C9.12181 20.0788 9.01386 19.9438 8.63604 19.9438H6.45004V8.44711H8.63604C9.01386 8.44711 9.12181 8.31217 9.12181 7.98832V5.20859C9.12181 4.88474 8.95989 4.7498 8.69001 4.7498H0.45879C0.161926 4.7498 0 4.88474 0 5.20859V7.98832C0 8.31217 0.134938 8.44711 0.485777 8.44711H2.67177V19.9438H0.485777C0.134938 19.9438 0 20.0788 0 20.4026V23.1823C0 23.5062 0.161926 23.6411 0.45879 23.6411H8.69001Z" fill="black"/>
<path d="M24.988 14.2764C24.988 10.5252 22.829 7.09773 17.6744 7.09773C12.5467 7.09773 10.3607 10.5252 10.3607 14.2764C10.3607 18.0277 12.5467 21.4282 17.6744 21.4282C22.829 21.4282 24.988 18.0277 24.988 14.2764ZM21.5876 14.2764C21.5876 16.5704 19.9953 17.8928 17.7013 17.8928C15.3534 17.8928 13.7612 16.5704 13.7612 14.2764C13.7612 11.9825 15.3534 10.6601 17.7013 10.6601C19.9953 10.6601 21.5876 11.9825 21.5876 14.2764Z" fill="black"/>
<path d="M38.524 12.4413C38.6319 12.4143 38.6859 12.3333 38.6859 12.2524V9.09481C38.6859 8.95987 38.6319 8.85192 38.551 8.77096C37.2016 7.82639 35.3125 7.09773 32.3708 7.09773C28.9974 7.09773 26.8653 8.98686 26.8653 11.6316C26.8653 14.8162 29.861 15.4369 32.4788 15.6258C34.2599 15.7608 35.6633 15.9497 35.6633 16.8403C35.6633 17.8658 34.6108 18.1896 33.1265 18.1896C31.3723 18.1896 29.1863 17.299 28.2687 15.6528C28.1877 15.5449 28.1068 15.5179 27.9988 15.5449L27.2162 15.8147C27.1352 15.8417 27.0812 15.9227 27.0812 16.0306V19.4581C27.0812 19.593 27.1352 19.7009 27.2701 19.7819C28.6465 20.6995 30.4817 21.4282 33.2074 21.4282C36.5809 21.4282 39.2257 19.7819 39.2257 16.8403C39.2257 14.3034 36.9857 13.3589 34.4758 12.981C32.5057 12.7381 30.5896 12.6842 30.5896 11.5237C30.5896 10.6871 31.4262 10.2283 32.8566 10.2283C34.6108 10.2283 36.4459 10.957 37.3365 12.6032C37.3905 12.6842 37.4715 12.7381 37.5794 12.7112L38.524 12.4413Z" fill="black"/>
<path d="M48.572 21.1043C48.8419 21.1043 49.0038 20.9694 49.0038 20.6455V18.1087C49.0038 17.7848 48.8959 17.6499 48.518 17.6499H46.7099V8.09627C46.7099 7.71844 46.521 7.44857 46.1161 7.44857H41.1504C40.8805 7.44857 40.7186 7.58351 40.7186 7.90736V10.4442C40.7186 10.768 40.8266 10.903 41.2044 10.903H43.1475V17.6499H41.2584C40.8805 17.6499 40.7726 17.7848 40.7726 18.1087V20.6455C40.7726 20.9694 40.9345 21.1043 41.2044 21.1043H48.572Z" fill="black"/>
<path d="M57.4914 24.9096C57.7613 24.9096 57.9232 24.7746 57.9232 24.4508V21.9409C57.9232 21.6171 57.8153 21.4551 57.4375 21.4551H54.8736V16.3815H55.1705C55.4134 18.1357 57.2485 19.7009 59.7044 19.7009C62.5111 19.7009 65.6957 17.434 65.6957 12.3603C65.6957 7.42158 62.8889 5.37052 59.8663 5.37052C57.3295 5.37052 55.4943 6.74689 55.0086 8.71698L54.7657 8.74397L54.145 6.15316C54.091 5.91027 53.983 5.72136 53.6052 5.72136H49.5841C49.3142 5.72136 49.1523 5.8563 49.1523 6.18015V8.71698C49.1523 9.04084 49.2602 9.17577 49.638 9.17577H51.4192V21.4551H49.638C49.3142 21.4551 49.1523 21.5901 49.1523 21.9139V24.4508C49.1523 24.7746 49.3142 24.9096 49.5841 24.9096H57.4914ZM62.2412 12.4143C62.2412 14.5193 60.514 15.9767 58.49 15.9767C56.5199 15.9767 54.8466 14.6543 54.8466 12.4683C54.8466 10.3632 56.7088 8.98686 58.5439 8.98686C60.487 8.98686 62.2412 10.3093 62.2412 12.4143Z" fill="black"/>
<path d="M75.3614 21.1043C75.6313 21.1043 75.7933 20.9694 75.7933 20.6455V18.1357C75.7933 17.8118 75.6853 17.6499 75.3075 17.6499H72.9865V15.248C72.9865 12.7921 74.5518 11.7396 75.8742 11.7936C76.4949 11.8206 77.0347 12.0365 77.3585 12.4143C77.4125 12.4953 77.4935 12.5492 77.5744 12.5492H78.1682C78.3301 12.5492 78.411 12.4143 78.411 12.2524V8.2582C78.411 8.15025 78.3841 8.06928 78.3031 7.98832C77.7094 7.47556 76.9267 7.36761 76.279 7.36761C74.4978 7.36761 72.8246 8.39313 72.7436 12.3873H72.4738V8.17723C72.4738 7.79941 72.2849 7.44857 71.8261 7.44857H67.4001C67.1302 7.44857 66.9683 7.58351 66.9683 7.90736V10.4172C66.9683 10.7411 67.0762 10.876 67.4541 10.876H69.4242V17.6499H67.4541C67.1032 17.6499 66.9683 17.8118 66.9683 18.1357V20.6455C66.9683 20.9694 67.1302 21.1043 67.4001 21.1043H75.3614Z" fill="black"/>
<path d="M94.4971 18.0817C94.4971 17.8118 94.3352 17.6499 94.0653 17.6499H93.5796C92.3111 17.6499 92.1222 16.9212 92.1222 16.0846V12.1984C92.1222 8.50109 89.2885 7.09773 86.4009 7.09773C83.7831 7.09773 82.0019 7.71844 80.8144 8.44711C80.6795 8.50108 80.6255 8.63602 80.6255 8.77096V12.1174C80.6255 12.4953 80.8954 12.3333 81.0303 12.2524C82.4337 11.2538 84.0259 10.7411 85.5103 10.7411C87.1835 10.7411 88.5869 11.4157 88.5869 12.9001V14.0605C87.5883 13.3858 86.104 12.954 84.6197 12.954C82.0558 12.9271 79.438 14.2494 79.438 17.1371C79.438 20.1867 81.5701 21.4282 84.3228 21.4282C86.5088 21.4282 88.4789 20.4026 89.1536 18.9453C89.8283 20.9154 91.3936 21.5361 94.0653 21.1043C94.3082 21.0503 94.4971 20.9154 94.4971 20.6455V18.0817ZM88.5599 16.9212C88.5599 17.8118 87.0216 18.5135 85.6182 18.5135C84.0799 18.5135 83.0544 17.9198 83.0544 16.8942C83.0544 15.9497 83.945 15.302 85.6452 15.302C86.6707 15.302 88.5599 15.6798 88.5599 16.5164V16.9212Z" fill="black"/>
<path d="M103.909 16.9482C103.909 18.4325 103.127 19.1072 101.723 19.1072C100.455 19.1072 99.6722 18.4595 99.6722 16.7863V12.2793H105.178C105.394 12.2793 105.502 12.1444 105.502 11.9825V9.09481C105.502 8.93288 105.421 8.82493 105.178 8.82493H99.6722V5.77533C99.6722 5.50546 99.5913 5.37052 99.3214 5.37052H98.1069C97.999 5.37052 97.945 5.39751 97.8641 5.47847L94.1398 9.44565C94.0588 9.52661 94.0048 9.63456 94.0048 9.7695V11.7396C94.0048 12.1444 94.1128 12.2793 94.4906 12.2793H96.1099V17.461C96.1099 21.3472 98.4578 22.8045 100.887 22.8045C103.666 22.8045 106.203 21.5361 106.203 16.9752V14.6273C106.203 14.4114 106.068 14.3574 105.906 14.3574H104.26C103.99 14.3574 103.909 14.4653 103.909 14.6273V16.9482Z" fill="black"/>
<path d="M122.961 18.0817C122.961 17.8118 122.799 17.6499 122.529 17.6499H122.043C120.775 17.6499 120.586 16.9212 120.586 16.0846V12.1984C120.586 8.50109 117.752 7.09773 114.864 7.09773C112.247 7.09773 110.465 7.71844 109.278 8.44711C109.143 8.50108 109.089 8.63602 109.089 8.77096V12.1174C109.089 12.4953 109.359 12.3333 109.494 12.2524C110.897 11.2538 112.489 10.7411 113.974 10.7411C115.647 10.7411 117.05 11.4157 117.05 12.9001V14.0605C116.052 13.3858 114.567 12.954 113.083 12.954C110.519 12.9271 107.902 14.2494 107.902 17.1371C107.902 20.1867 110.034 21.4282 112.786 21.4282C114.972 21.4282 116.942 20.4026 117.617 18.9453C118.292 20.9154 119.857 21.5361 122.529 21.1043C122.772 21.0503 122.961 20.9154 122.961 20.6455V18.0817ZM117.023 16.9212C117.023 17.8118 115.485 18.5135 114.082 18.5135C112.543 18.5135 111.518 17.9198 111.518 16.8942C111.518 15.9497 112.408 15.302 114.109 15.302C115.134 15.302 117.023 15.6798 117.023 16.5164V16.9212Z" fill="black"/>
<path d="M150.152 21.1043C150.422 21.1043 150.611 20.9154 150.611 20.6455V18.1087C150.611 17.8388 150.422 17.6499 150.152 17.6499H148.344V11.6047C148.344 9.1218 146.887 7.09773 143.864 7.09773C141.705 7.09773 139.897 8.20422 139.114 10.3362H138.979C138.575 8.44711 137.144 7.09773 134.661 7.09773C132.26 7.09773 130.343 8.50108 129.669 11.0379H129.453L129.075 7.88037C129.048 7.63748 128.913 7.44857 128.535 7.44857H124.406C124.136 7.44857 123.974 7.58351 123.974 7.90736V10.4442C123.974 10.768 124.082 10.903 124.46 10.903H126.376V17.6499H124.514C124.244 17.6499 124.055 17.8388 124.055 18.1087V20.6455C124.055 20.9154 124.244 21.1043 124.514 21.1043H131.315C131.585 21.1043 131.774 20.9154 131.774 20.6455V18.1087C131.774 17.8388 131.585 17.6499 131.315 17.6499H129.939V13.9796C129.939 11.9285 131.72 10.957 133.285 10.957C134.5 10.957 135.579 11.5507 135.579 12.6842V17.6499H134.095C133.798 17.6499 133.636 17.8388 133.636 18.1087V20.6455C133.636 20.9154 133.825 21.1043 134.095 21.1043H140.707C141.004 21.1043 141.192 20.9154 141.192 20.6455V18.1087C141.192 17.8388 141.004 17.6499 140.734 17.6499H139.141V13.8716C139.222 11.9015 140.95 10.957 142.488 10.957C143.702 10.957 144.782 11.5507 144.782 12.6842V17.6499H143.298C143.028 17.6499 142.839 17.8388 142.839 18.1087V20.6455C142.839 20.9154 143.028 21.1043 143.298 21.1043H150.152Z" fill="black"/>
<path d="M167 18.0817C167 17.8118 166.838 17.6499 166.568 17.6499H166.082C164.814 17.6499 164.625 16.9212 164.625 16.0846V12.1984C164.625 8.50109 161.791 7.09773 158.904 7.09773C156.286 7.09773 154.505 7.71844 153.317 8.44711C153.182 8.50108 153.128 8.63602 153.128 8.77096V12.1174C153.128 12.4953 153.398 12.3333 153.533 12.2524C154.937 11.2538 156.529 10.7411 158.013 10.7411C159.686 10.7411 161.09 11.4157 161.09 12.9001V14.0605C160.091 13.3858 158.607 12.954 157.123 12.954C154.559 12.9271 151.941 14.2494 151.941 17.1371C151.941 20.1867 154.073 21.4282 156.826 21.4282C159.012 21.4282 160.982 20.4026 161.656 18.9453C162.331 20.9154 163.896 21.5361 166.568 21.1043C166.811 21.0503 167 20.9154 167 20.6455V18.0817ZM161.063 16.9212C161.063 17.8118 159.524 18.5135 158.121 18.5135C156.583 18.5135 155.557 17.9198 155.557 16.8942C155.557 15.9497 156.448 15.302 158.148 15.302C159.174 15.302 161.063 15.6798 161.063 16.5164V16.9212Z" fill="black"/>
<path d="M43.6322 5.39752L43.736 3.26224L43.0243 5.2789L42.6091 5.11578L43.5284 3.17327L42.1049 4.77473L41.7787 4.44851L43.3801 3.02499L41.4376 3.94434L41.2745 3.52915L43.2912 2.81739L41.1559 2.92119V2.47634L43.2912 2.59496L41.2745 1.86837L41.4376 1.46801L43.3801 2.38737L41.7787 0.949015L42.1049 0.637619L43.5284 2.22425L42.6091 0.296567L43.0243 0.118627L43.736 2.15011L43.6322 0H44.0771L43.9584 2.13528L44.685 0.118627L45.0854 0.296567L44.166 2.22425L45.6044 0.637619L45.9158 0.949015L44.3292 2.38737L46.2568 1.46801L46.4348 1.86837L44.4033 2.59496L46.5534 2.47634V2.92119L44.4033 2.81739L46.4348 3.52915L46.2568 3.94434L44.3292 3.02499L45.9158 4.44851L45.6044 4.77473L44.166 3.17327L45.0854 5.11578L44.685 5.2789L43.9584 3.26224L44.0771 5.39752H43.6322Z" fill="#E23322"/>
</svg>
